PathFileType	4	(X/Y/Z)	Subject_003_static.trc	
DataRate	CameraRate	NumFrames	NumMarkers	Units	OrigDataRate	OrigDataStartFrame	OrigNumFrames	
100.00	100.00	8	24	mm	100.00	88	140	
Frame#	Time	LASI			RASI			LPSI			RPSI			LTHI			LKNE			LMKNE			LTIB			LANK			LHEE			LTOE			RTHI			RKNE			RMKNE			RTIB			RANK			RHEE			RTOE			LFEO			LFEP			LTIO			RFEO			RFEP			RTIO			
		X1	Y1	Z1	X2	Y2	Z2	X3	Y3	Z3	X4	Y4	Z4	X5	Y5	Z5	X6	Y6	Z6	X7	Y7	Z7	X8	Y8	Z8	X9	Y9	Z9	X10	Y10	Z10	X11	Y11	Z11	X12	Y12	Z12	X13	Y13	Z13	X14	Y14	Z14	X15	Y15	Z15	X16	Y16	Z16	X17	Y17	Z17	X18	Y18	Z18	X19	Y19	Z19	X20	Y20	Z20	X21	Y21	Z21	X22	Y22	Z22	X23	Y23	Z23	X24	Y24	Z24	

88	0.870	-843.03497	595.70917	14.77116	-781.86060	584.32898	182.64864	-931.04474	634.34106	110.49954	-907.25232	627.76117	166.07115	-911.69678	392.78778	-25.60092	-891.67139	304.59637	30.46929	-871.86523	301.65759	126.82249	-882.86102	147.09906	-17.07734	-881.69208	48.48022	39.30934	-931.09723	35.76060	64.57416	-787.38306	34.38385	75.34164	-807.31409	391.11011	271.56409	-827.30579	295.79599	237.61917	-873.59326	276.85410	146.92979	-882.13861	177.26144	336.63550	-965.54132	119.03864	347.61758	-1005.68024	158.80251	336.01355	-984.44049	28.45501	332.49161	-876.66479	309.00504	73.72858	-885.70520	552.89331	52.00957	-880.28174	48.16018	71.27664	-845.71417	293.09064	195.00386	-839.35016	544.41284	176.30002	-988.28613	120.44813	324.44562 
89	0.880	-843.16187	595.69873	14.72616	-781.96234	584.32678	182.62518	-931.13257	634.31409	110.50603	-907.36298	627.72498	166.09399	-911.77722	392.81262	-25.61752	-891.71503	304.57715	30.48426	-872.03986	301.76212	126.85010	-882.88324	147.08694	-17.07679	-881.68890	48.48252	39.33958	-931.10724	35.74314	64.61279	-787.37720	34.34195	75.41192	-807.28180	391.03821	271.42972	-827.32465	295.79626	237.61784	-873.70831	276.94254	146.82874	-882.11450	177.31387	336.60489	-965.48566	119.02818	347.64020	-1005.65265	158.79494	336.01935	-984.43689	28.46538	332.55502	-876.70544	308.99762	73.74133	-885.81616	552.87341	51.98078	-880.27496	48.16479	71.30675	-845.82025	293.08466	195.04073	-839.44965	544.40063	176.26749	-988.23621	120.42670	324.47321 
90	0.890	-843.31805	595.66156	14.69092	-782.07587	584.34515	182.58109	-931.22681	634.29755	110.51887	-907.46301	627.72754	166.08331	-911.96716	392.96213	-25.80771	-891.79846	304.57159	30.45700	-871.85040	301.67526	126.76398	-882.93958	147.11429	-17.06879	-881.72351	48.48988	39.31807	-931.11517	35.74259	64.59941	-787.37512	34.31083	75.40936	-807.25012	391.00262	271.32828	-827.24353	295.79007	237.51471	-873.73065	276.88153	146.79041	-882.07788	177.31876	336.54257	-965.50037	119.04651	347.64203	-1005.61694	158.80061	335.96249	-984.44470	28.40679	332.55194	-876.77545	308.99323	73.70925	-885.96191	552.84753	51.97132	-880.30481	48.17356	71.28505	-845.76300	293.08002	194.94789	-839.56439	544.41602	176.24931	-988.25970	120.45637	324.48441 
91	0.900	-843.49628	595.63367	14.67069	-782.15363	584.32410	182.48628	-931.30457	634.28046	110.55205	-907.60455	627.72107	166.07333	-912.02148	392.92001	-25.80991	-891.85382	304.51489	30.47729	-871.92145	301.65048	126.69698	-882.94873	147.08417	-17.08663	-881.69818	48.41510	39.36882	-931.10583	35.73255	64.63791	-787.35620	34.24736	75.44305	-807.27863	390.91724	271.27441	-827.20850	295.74658	237.44363	-873.74634	276.77695	146.81201	-882.08795	177.33272	336.60327	-965.45081	118.99923	347.61578	-1005.57397	158.77600	335.98935	-984.44604	28.33882	332.57678	-876.85883	308.94681	73.73820	-886.12384	552.82532	51.96523	-880.28339	48.10213	71.33600	-845.71478	293.03342	194.87128	-839.64282	544.39709	176.21225	-988.18201	120.35571	324.42734 
92	0.910	-843.60858	595.60883	14.64795	-782.23193	584.29797	182.44179	-931.40540	634.24969	110.54514	-907.72369	627.69470	166.06094	-912.05438	392.87329	-25.84556	-891.91052	304.48712	30.48507	-872.01184	301.72003	126.71937	-882.96436	147.04535	-17.07680	-881.71277	48.36035	39.39176	-931.10425	35.68213	64.64189	-787.37549	34.21056	75.44303	-807.28015	390.85071	271.24149	-827.17151	295.68887	237.36786	-873.61932	276.59955	146.77122	-882.08655	177.27757	336.56921	-965.33533	118.93029	347.53229	-1005.56781	158.78307	335.97641	-984.45654	28.28838	332.57407	-876.94720	308.92639	73.75621	-886.22607	552.79584	51.94584	-880.31049	48.04858	71.35950	-845.67316	292.97534	194.79347	-839.71783	544.36633	176.18254	-988.05212	120.25388	324.32782 
93	0.920	-843.71216	595.64569	14.63343	-782.30090	584.30902	182.36728	-931.53241	634.20135	110.56831	-907.79895	627.65961	166.05534	-912.07605	392.93756	-25.89875	-891.92267	304.47134	30.47838	-872.04590	301.72949	126.75679	-882.94806	147.05574	-17.12118	-881.70990	48.36865	39.39384	-931.06824	35.62223	64.70131	-787.33594	34.17271	75.47443	-807.33832	390.80548	271.22244	-827.23724	295.68546	237.36272	-873.83704	276.62973	146.76433	-881.98798	177.24753	336.42688	-965.36920	118.94392	347.59085	-1005.52631	158.76099	336.00235	-984.41101	28.31883	332.55347	-876.97693	308.91989	73.75462	-886.30573	552.79932	51.90716	-880.32031	48.05764	71.36214	-845.73877	292.96524	194.78871	-839.76093	544.34924	176.12878	-988.13525	120.33494	324.43869 
94	0.930	-843.85828	595.65436	14.65302	-782.41309	584.32562	182.35764	-931.73047	634.20209	110.53850	-907.89954	627.63220	166.02638	-912.15332	392.86609	-25.81461	-891.95892	304.49078	30.48588	-871.95306	301.61804	126.72356	-882.97784	147.05846	-17.09499	-881.74475	48.36468	39.39268	-931.09381	35.62050	64.68196	-787.36456	34.20073	75.48019	-807.40021	390.79831	271.19412	-827.40936	295.76962	237.50047	-873.76050	276.49683	146.75217	-882.02039	177.22516	336.43692	-965.34595	118.92728	347.58652	-1005.51538	158.72900	336.00864	-984.42163	28.31147	332.60193	-876.99493	308.94354	73.75539	-886.43573	552.79590	51.92627	-880.35406	48.05336	71.36094	-845.99933	293.03693	194.96579	-839.86163	544.35120	176.13727	-988.13483	120.34108	324.45819 
95	0.940	-843.95642	595.67883	14.67241	-782.53290	584.35699	182.36659	-931.90045	634.18127	110.52583	-908.00659	627.62866	166.06268	-912.34503	392.68256	-25.68702	-892.02539	304.49146	30.49730	-871.93182	301.62479	126.71516	-882.99261	147.05382	-17.05958	-881.73370	48.35589	39.43413	-931.06818	35.60516	64.74161	-787.35980	34.23111	75.51585	-807.48120	390.81210	271.19769	-827.44653	295.77271	237.50021	-873.78699	276.50378	146.74753	-882.04156	177.21849	336.45074	-965.36426	118.96732	347.64941	-1005.52838	158.74649	336.00958	-984.42810	28.31742	332.57657	-876.96594	308.94797	73.73330	-886.52527	552.80121	51.92796	-880.32758	48.05209	71.40177	-846.02295	293.03574	194.95993	-839.96265	544.36115	176.14366	-988.16553	120.39143	324.53394 
